<?xml version="1.0" encoding="UTF-8" standalone="no"?>
<svg xmlns="http://www.w3.org/2000/svg"
     width="384px" height="384px"
     viewBox="0 0 384 384">
  <path fill="black"
        d="M 145.00,378.00
           C 121.29,372.65 99.88,361.70 80.00,347.98
             65.68,338.08 53.71,326.51 42.80,313.00
             -17.08,238.79 -13.71,132.73 50.17,62.00
             88.84,19.19 142.19,-0.66 199.00,0.00
             199.00,0.00 209.00,0.91 209.00,0.91
             228.95,2.37 247.49,7.05 266.00,14.60
             286.44,22.95 309.23,37.63 325.00,53.01
             390.33,116.76 403.61,217.62 354.31,295.00
             342.90,312.90 328.58,328.78 312.00,342.00
             295.38,355.25 276.10,366.03 256.00,373.00
             256.00,373.00 256.00,327.00 256.00,327.00
             255.98,316.28 253.01,305.57 248.19,296.00
             245.47,290.59 240.22,283.30 235.96,279.04
             232.79,275.87 229.25,273.91 227.00,270.00
             235.13,269.93 243.14,268.09 251.00,266.13
             289.39,256.53 321.82,229.65 319.96,187.00
             319.47,175.60 315.37,162.78 309.55,153.00
             309.55,153.00 299.63,138.00 299.63,138.00
             298.72,135.02 300.55,130.17 301.19,127.00
             302.31,121.50 303.93,111.45 304.00,106.00
             304.08,98.41 303.03,81.10 293.00,80.23
             283.77,79.44 267.37,86.78 260.00,92.16
             256.06,95.03 249.19,102.89 245.00,102.94
             245.00,102.94 228.00,98.80 228.00,98.80
             217.27,96.70 207.90,95.98 197.00,96.00
             188.65,96.01 176.20,97.77 168.00,99.65
             165.30,100.27 155.90,103.18 154.00,102.89
             150.72,102.37 144.26,95.36 141.00,92.90
             133.41,87.16 116.66,79.40 107.00,80.23
             96.80,81.11 95.92,98.35 96.00,106.00
             96.07,111.45 97.69,121.50 98.81,127.00
             99.48,130.33 101.26,134.79 100.23,138.00
             100.23,138.00 90.31,153.00 90.31,153.00
             83.09,166.08 79.83,177.04 80.00,192.00
             80.47,231.94 111.95,256.82 148.00,265.87
             156.19,267.93 164.52,269.92 173.00,270.00
             170.51,274.33 163.34,278.28 156.03,289.00
             154.02,291.95 150.00,300.31 147.73,301.69
             145.26,303.17 140.91,302.94 138.00,303.28
             128.80,304.39 111.83,305.46 104.01,300.15
             97.57,295.77 92.79,284.94 80.00,276.70
             77.17,274.88 71.52,271.39 68.11,273.11
             65.28,274.55 65.75,276.79 67.29,279.00
             71.03,284.38 75.66,284.85 81.40,299.00
             84.12,305.72 86.66,315.18 90.60,321.00
             102.91,339.19 124.97,336.00 144.00,336.00
             144.00,336.00 145.00,378.00 145.00,378.00 Z" />
</svg>
