<?xml version="1.0" encoding="UTF-8" standalone="no"?>
<svg xmlns="http://www.w3.org/2000/svg"
     width="360px" height="360px"
     viewBox="0 0 360 360">
  <path fill="#2867b2"
        d="M 40.00,0.12
           C 40.00,0.12 72.00,0.12 72.00,0.12
             72.00,0.12 131.00,0.12 131.00,0.12
             131.00,0.12 312.00,0.12 312.00,0.12
             338.59,0.04 359.96,21.41 360.00,48.00
             360.00,48.00 360.00,219.00 360.00,219.00
             360.00,219.00 360.00,314.00 360.00,314.00
             359.70,339.53 337.01,359.96 312.00,360.00
             312.00,360.00 141.00,360.00 141.00,360.00
             141.00,360.00 46.00,360.00 46.00,360.00
             20.47,359.70 0.04,337.01 0.00,312.00
             0.00,312.00 0.00,80.00 0.00,80.00
             0.00,80.00 0.00,48.00 0.00,48.00
             0.03,30.54 8.96,15.37 24.00,6.45
             29.18,3.38 34.16,1.76 40.00,0.12 Z
           M 79.00,60.32
           C 65.21,63.45 59.86,72.47 60.00,86.00
             60.07,92.41 61.76,98.09 66.21,102.91
             72.44,109.65 82.24,111.21 91.00,109.67
             109.58,106.42 116.03,81.92 104.61,68.04
             97.92,59.91 88.74,59.26 79.00,60.32 Z
           M 110.00,130.00
           C 110.00,130.00 60.00,130.00 60.00,130.00
             60.00,130.00 60.00,300.00 60.00,300.00
             60.00,300.00 110.00,300.00 110.00,300.00
             110.00,300.00 110.00,130.00 110.00,130.00 Z
           M 190.00,130.00
           C 190.00,130.00 140.00,130.00 140.00,130.00
             140.00,130.00 140.00,300.00 140.00,300.00
             140.00,300.00 190.00,300.00 190.00,300.00
             190.00,300.00 190.00,205.00 190.00,205.00
             190.15,192.41 195.19,180.90 207.00,175.00
             210.80,173.10 214.81,172.77 219.00,172.86
             233.74,173.21 243.37,182.28 247.65,196.00
             250.64,205.57 250.00,223.54 250.00,234.00
             250.00,234.00 250.00,300.00 250.00,300.00
             250.00,300.00 300.00,300.00 300.00,300.00
             300.00,300.00 300.00,218.00 300.00,218.00
             300.00,198.35 301.33,179.27 292.19,161.00
             282.43,141.48 263.73,130.10 242.00,130.00
             242.00,130.00 232.00,130.00 232.00,130.00
             225.24,130.08 217.08,132.01 211.00,134.98
             201.22,139.75 195.94,146.21 190.00,155.00
             190.00,155.00 190.00,130.00 190.00,130.00 Z" />
    <path fill="white"
        d="M 78.00,60.52
           C 87.31,59.04 97.03,59.77 103.79,67.09
             116.11,80.44 110.43,105.24 92.00,109.47
             83.18,111.50 72.51,109.74 66.21,102.91
             61.76,98.09 60.07,92.41 60.00,86.00
             59.87,72.82 64.75,64.17 78.00,60.52 Z
           M 60.00,130.00
           C 60.00,130.00 110.00,130.00 110.00,130.00
             110.00,130.00 110.00,300.00 110.00,300.00
             110.00,300.00 60.00,300.00 60.00,300.00
             60.00,300.00 60.00,130.00 60.00,130.00 Z
           M 140.00,130.00
           C 140.00,130.00 190.00,130.00 190.00,130.00
             190.00,130.00 191.00,155.00 191.00,155.00
             202.40,125.85 248.71,124.29 272.00,138.46
             280.15,143.43 284.20,148.06 289.30,156.00
             300.96,174.13 300.00,194.51 300.00,215.00
             300.00,215.00 300.00,300.00 300.00,300.00
             300.00,300.00 250.00,300.00 250.00,300.00
             250.00,300.00 250.00,234.00 250.00,234.00
             250.00,223.54 250.64,205.57 247.65,196.00
             243.37,182.28 233.74,173.21 219.00,172.86
             214.81,172.77 210.80,173.10 207.00,175.00
             195.19,180.90 190.15,192.41 190.00,205.00
             190.00,205.00 190.00,300.00 190.00,300.00
             190.00,300.00 140.00,300.00 140.00,300.00
             140.00,300.00 140.00,130.00 140.00,130.00 Z" />

</svg>
